<svg data-v-0dd9719b="" version="1.0" xmlns="http://www.w3.org/2000/svg" xmlns:xlink="http://www.w3.org/1999/xlink" width="100%" height="50%" viewBox="50 96 250.000000 60.000000" preserveAspectRatio="xMidYMid meet" color-interpolation-filters="sRGB" style="margin: auto;"> <rect data-v-0dd9719b="" x="0" y="0" width="100%" height="100%" fill="currentColor" fill-opacity="1" class="background"></rect> <rect data-v-0dd9719b="" x="0" y="0" width="100%" height="100%" fill="url(#watermark)" fill-opacity="1" class="watermarklayer"></rect> <g data-v-0dd9719b="" fill="white" class="icon-text-wrapper icon-svg-group iconsvg" transform="translate(52.779998779296875,95.86841201782227)"><g class="iconsvg-imagesvg" transform="translate(0,0)"><g><rect fill="" fill-opacity="0" stroke-width="2" x="0" y="0" width="60" height="58.2631747603927" class="image-rect"></rect> <svg filter="url(#colors9312449425)" x="0" y="0" width="60" height="58.2631747603927" filtersec="colorsf3343758635" class="image-svg-svg primary" style="overflow: visible;"><svg xmlns="http://www.w3.org/2000/svg" viewBox="0.11238180845975876 0.22271329164505005 97.7223892211914 94.89346313476562"><title>资源 174</title><path d="M95.42 47.87q-.33 3.85-.64 7.69v.35c-.52 3.09-2.42 4.92-4.78 4.61-2.71-.37-4.32-2.7-3.8-5.86a38.67 38.67 0 0 0-6.79-29.77C63.56 2.66 30 3.39 15 26.26a38.87 38.87 0 0 0 29 60.13 37.68 37.68 0 0 0 25-6.11c2.25-1.49 3-1.43 5.2.19s4.46 3.4 6.72 5.06a5.39 5.39 0 0 0 7.65-.92A5.3 5.3 0 0 0 87.49 77c-5.18-4-10.3-8.1-15.6-11.93a5.53 5.53 0 0 1-2.36-6.66c.75-2.76 1.71-5.48 2.22-8.29 1.18-6.63-.79-12.57-4.91-17.68-6.36-7.85-14.84-10.79-24.58-8.61s-16.08 8.6-18.4 18.41C20 58.49 33.8 73.83 50.34 71.84a41.89 41.89 0 0 0 5.74-1.52c.23-.07.43-.18.65-.26 2.4-.84 4.77 0 5.66 2.09s0 4.07-2.23 5.25A25.27 25.27 0 0 1 46.71 80c-14-.84-23.86-7.72-29.33-20.66-7.16-17 3.2-38.08 21-42.94 16.74-4.57 33.08 3.25 39.56 19.06a31.23 31.23 0 0 1 .62 22.3c-.57 1.72-.11 2.53 1.17 3.48 4.37 3.22 8.5 6.83 13.06 9.75 7 4.48 6.76 16.48-1 21.29-4.54 2.82-9.15 3.33-13.76 0-1.74-1.26-3.58-3-5.52-3.22s-3.79 1.37-5.68 2.19A48.13 48.13 0 0 1 3.27 64.93a47.65 47.65 0 1 1 89.55-32.56 47.14 47.14 0 0 1 2.6 15.5z" fill=""></path></svg></svg> <defs><filter id="colors931"><feColorMatrix type="matrix" values="0 0 0 0 0  0 0 0 0 0  0 0 0 0 0  0 0 0 1 0" class="icon-fecolormatrix"></feColorMatrix></filter> <filter id="colorsf3343758635"><feColorMatrix type="matrix" values="0 0 0 0 0.99609375  0 0 0 0 0.99609375  0 0 0 0 0.99609375  0 0 0 1 0" class="icon-fecolormatrix"></feColorMatrix></filter> <filter id="colorsb8509775857"><feColorMatrix type="matrix" values="0 0 0 0 0  0 0 0 0 0  0 0 0 0 0  0 0 0 1 0" class="icon-fecolormatrix"></feColorMatrix></filter></defs></g></g> <g transform="translate(66,16.576587677001953)"><g data-gra="path-name" fill-rule="text-foreground" stroke="" class="tp-name iconsvg-namesvg"><g transform="scale(1)"><g><path d="M19.75 3.18L15.25 3.18 12.51-0.1Q11.37 0.18 10.18 0.18L10.18 0.18Q7.64 0.18 5.51-1.01 3.39-2.2 2.15-4.31 0.91-6.42 0.91-9.09L0.91-9.09Q0.91-11.73 2.15-13.84 3.39-15.95 5.51-17.14 7.64-18.33 10.18-18.33L10.18-18.33Q12.74-18.33 14.85-17.14 16.96-15.95 18.19-13.84 19.42-11.73 19.42-9.09L19.42-9.09Q19.42-6.68 18.4-4.7 17.37-2.72 15.61-1.48L15.61-1.48 19.75 3.18ZM4.63-9.09Q4.63-7.28 5.33-5.9 6.03-4.53 7.29-3.79 8.54-3.06 10.18-3.06L10.18-3.06Q11.81-3.06 13.05-3.79 14.29-4.53 14.99-5.9 15.69-7.28 15.69-9.09L15.69-9.09Q15.69-10.9 14.99-12.26 14.29-13.62 13.05-14.34 11.81-15.07 10.18-15.07L10.18-15.07Q8.54-15.07 7.29-14.34 6.03-13.62 5.33-12.26 4.63-10.9 4.63-9.09L4.63-9.09ZM32.05-14.34L35.7-14.34 35.7 0 32.05 0 32.05-1.81Q31.35-0.88 30.23-0.35 29.1 0.18 27.78 0.18L27.78 0.18Q26.1 0.18 24.8-0.53 23.51-1.24 22.77-2.63 22.03-4.01 22.03-5.93L22.03-5.93 22.03-14.34 25.66-14.34 25.66-6.45Q25.66-4.74 26.51-3.82 27.37-2.9 28.84-2.9L28.84-2.9Q30.34-2.9 31.2-3.82 32.05-4.74 32.05-6.45L32.05-6.45 32.05-14.34ZM52.61-7.48Q52.61-6.71 52.51-6.08L52.51-6.08 42.02-6.08Q42.15-4.53 43.11-3.65 44.07-2.77 45.46-2.77L45.46-2.77Q47.48-2.77 48.34-4.51L48.34-4.51 52.25-4.51Q51.63-2.43 49.87-1.1 48.11 0.23 45.54 0.23L45.54 0.23Q43.47 0.23 41.83-0.69 40.18-1.61 39.26-3.29 38.34-4.97 38.34-7.17L38.34-7.17Q38.34-9.4 39.25-11.08 40.16-12.76 41.79-13.67 43.42-14.58 45.54-14.58L45.54-14.58Q47.59-14.58 49.21-13.7 50.82-12.82 51.72-11.2 52.61-9.58 52.61-7.48L52.61-7.48ZM42.05-8.52L48.86-8.52Q48.83-9.92 47.85-10.76 46.86-11.6 45.44-11.6L45.44-11.6Q44.09-11.6 43.17-10.78 42.25-9.97 42.05-8.52L42.05-8.52ZM58.88-12.12Q59.58-13.26 60.7-13.9 61.83-14.55 63.28-14.55L63.28-14.55 63.28-10.74 62.32-10.74Q60.61-10.74 59.74-9.94 58.88-9.14 58.88-7.15L58.88-7.15 58.88 0 55.25 0 55.25-14.34 58.88-14.34 58.88-12.12ZM75.58-14.34L79.43-14.34 70.55 6.78 66.7 6.78 69.8-0.36 64.05-14.34 68.12-14.34 71.82-4.32 75.58-14.34ZM80.49-9.06Q80.49-11.73 81.7-13.84 82.9-15.95 84.99-17.13 87.07-18.3 89.66-18.3L89.66-18.3Q92.69-18.3 94.97-16.75 97.25-15.2 98.15-12.45L98.15-12.45 93.98-12.45Q93.36-13.75 92.24-14.4 91.11-15.04 89.63-15.04L89.63-15.04Q88.06-15.04 86.83-14.3 85.6-13.57 84.91-12.22 84.22-10.87 84.22-9.06L84.22-9.06Q84.22-7.28 84.91-5.92 85.6-4.56 86.83-3.82 88.06-3.08 89.63-3.08L89.63-3.08Q91.11-3.08 92.24-3.74 93.36-4.4 93.98-5.7L93.98-5.7 98.15-5.7Q97.25-2.93 94.98-1.39 92.72 0.16 89.66 0.16L89.66 0.16Q87.07 0.16 84.99-1.02 82.9-2.2 81.7-4.3 80.49-6.4 80.49-9.06L80.49-9.06ZM107.63 0.23Q105.56 0.23 103.9-0.69 102.24-1.61 101.3-3.29 100.35-4.97 100.35-7.17L100.35-7.17Q100.35-9.37 101.32-11.06 102.3-12.74 103.98-13.66 105.66-14.58 107.73-14.58L107.73-14.58Q109.8-14.58 111.49-13.66 113.17-12.74 114.14-11.06 115.11-9.37 115.11-7.17L115.11-7.17Q115.11-4.97 114.11-3.29 113.12-1.61 111.42-0.69 109.73 0.23 107.63 0.23L107.63 0.23ZM107.63-2.93Q108.61-2.93 109.48-3.4 110.35-3.88 110.87-4.84 111.38-5.8 111.38-7.17L111.38-7.17Q111.38-9.22 110.31-10.32 109.23-11.42 107.68-11.42L107.68-11.42Q106.13-11.42 105.08-10.32 104.03-9.22 104.03-7.17L104.03-7.17Q104.03-5.13 105.05-4.03 106.08-2.93 107.63-2.93L107.63-2.93ZM121.4-12.12Q122.1-13.26 123.23-13.9 124.35-14.55 125.8-14.55L125.8-14.55 125.8-10.74 124.85-10.74Q123.14-10.74 122.27-9.94 121.4-9.14 121.4-7.15L121.4-7.15 121.4 0 117.78 0 117.78-14.34 121.4-14.34 121.4-12.12ZM136.19-14.55Q138.75-14.55 140.33-12.93 141.91-11.31 141.91-8.41L141.91-8.41 141.91 0 138.28 0 138.28-7.92Q138.28-9.63 137.43-10.55 136.57-11.47 135.1-11.47L135.1-11.47Q133.6-11.47 132.73-10.55 131.86-9.63 131.86-7.92L131.86-7.92 131.86 0 128.24 0 128.24-14.34 131.86-14.34 131.86-12.56Q132.59-13.49 133.71-14.02 134.84-14.55 136.19-14.55L136.19-14.55ZM158.69-7.48Q158.69-6.71 158.58-6.08L158.58-6.08 148.1-6.08Q148.23-4.53 149.18-3.65 150.14-2.77 151.54-2.77L151.54-2.77Q153.56-2.77 154.41-4.51L154.41-4.51 158.32-4.51Q157.7-2.43 155.94-1.1 154.18 0.23 151.62 0.23L151.62 0.23Q149.55 0.23 147.9-0.69 146.26-1.61 145.34-3.29 144.42-4.97 144.42-7.17L144.42-7.17Q144.42-9.4 145.33-11.08 146.23-12.76 147.86-13.67 149.49-14.58 151.62-14.58L151.62-14.58Q153.66-14.58 155.28-13.7 156.9-12.82 157.79-11.2 158.69-9.58 158.69-7.48L158.69-7.48ZM148.12-8.52L154.93-8.52Q154.91-9.92 153.92-10.76 152.94-11.6 151.51-11.6L151.51-11.6Q150.17-11.6 149.25-10.78 148.33-9.97 148.12-8.52L148.12-8.52ZM164.95-12.12Q165.65-13.26 166.78-13.9 167.9-14.55 169.35-14.55L169.35-14.55 169.35-10.74 168.39-10.74Q166.69-10.74 165.82-9.94 164.95-9.14 164.95-7.15L164.95-7.15 164.95 0 161.33 0 161.33-14.34 164.95-14.34 164.95-12.12Z" transform="translate(-0.9100000262260437, 18.329999923706055)" stroke-width="0.6" stroke-linejoin="round"></path></g> <!----> <!----> <!----> <!----> <!----> <!----> <!----></g></g> <!----></g></g><defs v-gra="od"></defs></svg>